<?xml version="1.0" encoding="UTF-8"?>
<svg width="92px" height="70px" viewBox="0 0 92 70" version="1.1" xmlns="http://www.w3.org/2000/svg" xmlns:xlink="http://www.w3.org/1999/xlink">
    <!-- Generator: Sketch 50 (54983) - http://www.bohemiancoding.com/sketch -->
    <title>icon-big-trading</title>
    <desc>Created with Sketch.</desc>
    <defs></defs>
    <g id="desktop" stroke="none" stroke-width="1" fill="none" fill-rule="evenodd">
        <g id="Admiral.Invest-4" transform="translate(-148.000000, -3459.000000)">
            <g id="Group-17" transform="translate(140.000000, 2969.000000)">
                <g id="Group-15" transform="translate(0.000000, 20.000000)">
                    <g id="Start" transform="translate(0.000000, 456.000000)">
                        <g id="icon-big-trading">
                            <g id="arrows" transform="translate(8.000000, 14.000000)">
                                <rect id="Rectangle-21" stroke="#2585FF" stroke-width="2" fill="#FFFFFF" x="1" y="1" width="76" height="55" rx="4"></rect>
                                <path d="M1,9 L76,9" id="Stroke-7" stroke="#2585FF" stroke-width="2" stroke-linecap="round" stroke-linejoin="round"></path>
                                <g id="file-rounded-rectangular-symbol-with-down-arrow" transform="translate(28.000000, 19.000000)" fill="#2585FF" fill-rule="nonzero" stroke="#2585FF" stroke-width="0.2">
                                    <path d="M15.4321756,4.94851201 C13.0387534,4.46952276 10.5758192,5.2052252 8.85065945,6.91716825 C7.29401345,8.46266515 6.54465376,10.629074 6.77741341,12.7892216 L5.67259497,12.7892216 C4.99274721,12.7892216 4.56724992,13.5197063 4.90796371,14.1046158 L6.60416018,17.0197715 C6.94434737,17.6041593 7.79428872,17.6041593 8.1339493,17.0197715 L9.83067238,14.1046158 C10.1708596,13.5197063 9.74588889,12.7892216 9.06551452,12.7892216 L8.0770759,12.7892216 C7.83694377,10.9682276 8.45307226,9.127928 9.76537329,7.82557815 C11.1829954,6.41782979 13.2056873,5.81100572 15.1757187,6.20703278 C15.5190655,6.27799415 15.8666252,6.05258744 15.9377169,5.70456367 C16.0088087,5.35758344 15.7818417,5.01842983 15.4321756,4.94851201 Z M17.2131556,0 L4.78842425,0 C2.14802403,0 0,2.13197175 0,4.75180292 L0,20.850642 C0,21.0207405 0.0679321158,21.1850996 0.189051392,21.304586 L6.74739689,27.8121611 C6.86851617,27.9321693 7.0328171,28 7.20449051,28 L17.2131556,28 C19.8535558,28 22,25.8680283 22,23.2487189 L22,4.75180292 C22,2.13197175 19.8535558,0 17.2131556,0 Z M6.72264643,25.9713397 L1.65880748,20.9461268 L4.05854896,20.9461268 C5.47775092,20.9461268 6.72317304,21.9954158 6.72317304,23.1902801 L6.72264643,25.9713397 Z M20.7061302,23.2487189 C20.7061302,25.1615452 19.1384254,26.716434 17.2131556,26.716434 L8.01651626,26.716434 L8.01651626,23.1902801 C8.01651626,21.2784973 6.20446657,19.662039 4.05802236,19.662039 L1.29386983,19.662039 L1.29386983,4.75180292 C1.29386983,2.84002013 2.86157455,1.28408773 4.78842425,1.28408773 L17.2131556,1.28408773 C19.1394787,1.28408773 20.7071834,2.83949835 20.7071834,4.75180292 L20.7071834,23.2487189 L20.7061302,23.2487189 Z" id="Shape"></path>
                                </g>
                                <path d="M7.996,4.998 C7.996,5.549 7.549,5.996 6.998,5.996 C6.447,5.996 6,5.549 6,4.998 C6,4.447 6.447,4 6.998,4 C7.549,4 7.996,4.447 7.996,4.998" id="Fill-9" fill="#2585FF"></path>
                                <path d="M11.996,4.998 C11.996,5.549 11.549,5.996 10.998,5.996 C10.447,5.996 10,5.549 10,4.998 C10,4.447 10.447,4 10.998,4 C11.549,4 11.996,4.447 11.996,4.998" id="Fill-11" fill="#2585FF"></path>
                                <path d="M15.996,4.998 C15.996,5.549 15.549,5.996 14.998,5.996 C14.447,5.996 14,5.549 14,4.998 C14,4.447 14.447,4 14.998,4 C15.549,4 15.996,4.447 15.996,4.998" id="Fill-13" fill="#2585FF"></path>
                            </g>
                            <g id="Check" transform="translate(68.000000, 52.000000)">
                                <circle id="Oval-4" stroke="#2585FF" stroke-width="2" fill="#2585FF" cx="16" cy="16" r="15"></circle>
                                <path d="M14.6601562,15.0595703 L15.7470703,15.0595703 C16.6084027,15.0595703 17.0390625,14.638025 17.0390625,13.7949219 C17.0390625,13.4667952 16.9365245,13.199057 16.7314453,12.9916992 C16.5263662,12.7843414 16.236981,12.6806641 15.8632812,12.6806641 C15.5579412,12.6806641 15.2924816,12.7695304 15.0668945,12.9472656 C14.8413075,13.1250009 14.7285156,13.3460273 14.7285156,13.6103516 L12.4248047,13.6103516 C12.4248047,13.0862604 12.5706366,12.6191427 12.8623047,12.2089844 C13.1539728,11.7988261 13.5584284,11.4786795 14.0756836,11.2485352 C14.5929388,11.0183908 15.1614552,10.9033203 15.78125,10.9033203 C16.8886774,10.9033203 17.7591114,11.1562475 18.3925781,11.6621094 C19.0260448,12.1679713 19.3427734,12.8629513 19.3427734,13.7470703 C19.3427734,14.1754579 19.2117526,14.5799135 18.949707,14.9604492 C18.6876615,15.340985 18.3059921,15.6497384 17.8046875,15.8867188 C18.333336,16.078126 18.7480454,16.3686504 19.0488281,16.7583008 C19.3496109,17.1479512 19.5,17.6298799 19.5,18.2041016 C19.5,19.0927779 19.1582065,19.8037083 18.4746094,20.3369141 C17.7910122,20.8701199 16.8932347,21.1367188 15.78125,21.1367188 C15.129554,21.1367188 14.5245796,21.0125338 13.9663086,20.7641602 C13.4080376,20.5157865 12.985353,20.1717144 12.6982422,19.7319336 C12.4111314,19.2921527 12.2675781,18.791995 12.2675781,18.2314453 L14.5849609,18.2314453 C14.5849609,18.5367854 14.7080066,18.8011057 14.9541016,19.0244141 C15.2001965,19.2477225 15.5032534,19.359375 15.8632812,19.359375 C16.2688822,19.359375 16.5924467,19.2465832 16.8339844,19.0209961 C17.075522,18.795409 17.1962891,18.5071632 17.1962891,18.15625 C17.1962891,17.6549454 17.0709648,17.2994802 16.8203125,17.0898438 C16.5696602,16.8802073 16.2233095,16.7753906 15.78125,16.7753906 L14.6601562,16.7753906 L14.6601562,15.0595703 Z" id="3" fill="#FFFFFF"></path>
                            </g>
                        </g>
                    </g>
                </g>
            </g>
        </g>
    </g>
</svg>