<?xml version="1.0" encoding="UTF-8"?>
<svg width="89px" height="66px" viewBox="0 0 89 66" version="1.1" xmlns="http://www.w3.org/2000/svg" xmlns:xlink="http://www.w3.org/1999/xlink">
    <!-- Generator: sketchtool 49.3 (51167) - http://www.bohemiancoding.com/sketch -->
    <title>C6D8A4AC-2B6F-4B5B-8595-FD875BD4148E</title>
    <desc>Created with sketchtool.</desc>
    <defs>
        <path d="M4.29296875,0 L70.2929688,-2.94721535e-06 C72.5021077,-2.94721535e-06 74.2929688,1.79085805 74.2929688,3.99999705 C74.2929688,3.99999803 74.2929687,3.99999902 74.2929687,4 L74.2929429,35.0524902 L74.2930302,50 C74.2930332,52.209139 72.5021747,54.0000024 70.2930357,54.0000055 C70.2930134,54.0000055 70.2929911,54.0000055 70.2929687,54.0000055 L52.843675,53.9996705 L4.29296875,54 C2.08382975,54.0000139 0.29295752,52.2091641 0.292943666,50.0000251 C0.292943666,50.0000167 0.292943666,50.0000084 0.292943666,50 L0.29296875,4 C0.29296875,1.790861 2.08382975,4.05812251e-16 4.29296875,0 Z" id="path-1"></path>
        <circle id="path-2" cx="16" cy="16" r="16"></circle>
    </defs>
    <g id="desktop" stroke="none" stroke-width="1" fill="none" fill-rule="evenodd">
        <g id="Admiral.Invest-4" transform="translate(-150.000000, -3323.000000)">
            <g id="Group-17" transform="translate(140.000000, 2969.000000)">
                <g id="Group-15" transform="translate(0.000000, 20.000000)">
                    <g id="Download" transform="translate(0.000000, 316.000000)">
                        <g id="icon-big-download">
                            <g id="Block" transform="translate(10.000000, 18.000000)">
                                <path d="M14,64 L62.0104155,64" id="Path-12" stroke="#2585FF" stroke-width="2" stroke-linecap="round"></path>
                                <polygon id="Rectangle-18" stroke="#2585FF" stroke-width="2" fill="#FFFFFF" points="27.0540541 53 48.9459459 53 53 64 23 64"></polygon>
                                <g id="Rectangle-17">
                                    <use fill="#FFFFFF" fill-rule="evenodd" xlink:href="#path-1"></use>
                                    <path stroke="#2585FF" stroke-width="2" d="M4.29296875,1 C2.6361145,1 1.29296875,2.34314575 1.29296875,4.00000055 L1.29294367,50.0000188 C1.29295406,51.6568731 2.63610823,53.0000104 4.29296196,53 L52.8436942,52.9996705 L70.2930343,53.0000055 C71.9498885,53.0000032 73.2930325,51.6568556 73.2930302,50.0000058 L73.2929429,35.0524894 L73.2929688,3.99999705 C73.2929688,2.3431428 71.949823,0.999997053 70.2929688,0.999997053 L4.29296879,1 Z"></path>
                                </g>
                                <path d="M1,45 L73.0277724,45" id="Path-13" stroke="#2585FF" stroke-width="2"></path>
                                <g id="icon-68" transform="translate(24.000000, 8.000000)">
                                    <path d="M24,24 L24,28 C24,29.104 23.104,30 22,30 L2,30 C0.896,30 0,29.104 0,28 L0,8 C0,6.896 0.896,6 2,6 L6,6" id="Stroke-1" stroke="#2585FF" stroke-width="2" stroke-linecap="round" stroke-linejoin="round"></path>
                                    <path d="M0,14 L6,14" id="Stroke-3" stroke="#2585FF" stroke-width="2" stroke-linecap="round" stroke-linejoin="round"></path>
                                    <path d="M28,24 L8,24 C6.896,24 6,23.104 6,22 L6,2 C6,0.896 6.896,0 8,0 L28,0 C29.104,0 30,0.896 30,2 L30,22 C30,23.104 29.104,24 28,24 Z" id="Stroke-5" stroke="#2585FF" stroke-width="2" stroke-linecap="round" stroke-linejoin="round"></path>
                                    <path d="M6,8 L30,8" id="Stroke-7" stroke="#2585FF" stroke-width="2" stroke-linecap="round" stroke-linejoin="round"></path>
                                    <path d="M10.998,4 C10.998,4.551 10.551,4.998 10,4.998 C9.449,4.998 9.002,4.551 9.002,4 C9.002,3.449 9.449,3.002 10,3.002 C10.551,3.002 10.998,3.449 10.998,4" id="Fill-9" fill="#2585FF"></path>
                                    <path d="M14.998,4 C14.998,4.551 14.551,4.998 14,4.998 C13.449,4.998 13.002,4.551 13.002,4 C13.002,3.449 13.449,3.002 14,3.002 C14.551,3.002 14.998,3.449 14.998,4" id="Fill-11" fill="#2585FF"></path>
                                    <path d="M18.998,4 C18.998,4.551 18.551,4.998 18,4.998 C17.449,4.998 17.002,4.551 17.002,4 C17.002,3.449 17.449,3.002 18,3.002 C18.551,3.002 18.998,3.449 18.998,4" id="Fill-13" fill="#2585FF"></path>
                                </g>
                            </g>
                            <g id="Check" transform="translate(67.000000, 52.000000)">
                                <g id="Oval-4">
                                    <use fill="#2585FF" fill-rule="evenodd" xlink:href="#path-2"></use>
                                    <circle stroke="#2585FF" stroke-width="2" cx="16" cy="16" r="15"></circle>
                                </g>
                                <path d="M19.5,21 L12.5546875,21 L12.5546875,19.4960938 L15.7539062,16.1328125 C16.5423217,15.2350216 16.9365234,14.5218125 16.9365234,13.9931641 C16.9365234,13.5647765 16.8430999,13.2389334 16.65625,13.015625 C16.4694001,12.7923166 16.198244,12.6806641 15.8427734,12.6806641 C15.4918602,12.6806641 15.2070323,12.8299139 14.9882812,13.128418 C14.7695302,13.4269221 14.6601562,13.7994769 14.6601562,14.2460938 L12.3496094,14.2460938 C12.3496094,13.6354136 12.5022771,13.0714544 12.8076172,12.5541992 C13.1129573,12.036944 13.5367811,11.6324884 14.0791016,11.3408203 C14.621422,11.0491522 15.2275357,10.9033203 15.8974609,10.9033203 C16.9729871,10.9033203 17.8012666,11.1516902 18.3823242,11.6484375 C18.9633818,12.1451848 19.2539062,12.8583938 19.2539062,13.7880859 C19.2539062,14.180015 19.1809903,14.5616843 19.0351562,14.9331055 C18.8893222,15.3045266 18.6625992,15.6941711 18.3549805,16.1020508 C18.0473617,16.5099304 17.5517612,17.0556606 16.8681641,17.7392578 L15.5830078,19.2226562 L19.5,19.2226562 L19.5,21 Z" id="2" fill="#FFFFFF"></path>
                            </g>
                        </g>
                    </g>
                </g>
            </g>
        </g>
    </g>
</svg>