<?xml version="1.0" encoding="UTF-8"?>
<svg width="100px" height="72px" viewBox="0 0 100 72" version="1.1" xmlns="http://www.w3.org/2000/svg" xmlns:xlink="http://www.w3.org/1999/xlink">
    <!-- Generator: sketchtool 49.3 (51167) - http://www.bohemiancoding.com/sketch -->
    <title>FC8C3032-3BB3-48EA-8796-08C4BDAEF959</title>
    <desc>Created with sketchtool.</desc>
    <defs>
        <rect id="path-1" x="0" y="0" width="68" height="50" rx="4"></rect>
        <circle id="path-2" cx="20" cy="21" r="4"></circle>
        <circle id="path-3" cx="40" cy="36" r="4"></circle>
        <rect id="path-4" x="0" y="0" width="48" height="40" rx="4"></rect>
        <circle id="path-5" cx="16" cy="16" r="16"></circle>
    </defs>
    <g id="desktop" stroke="none" stroke-width="1" fill="none" fill-rule="evenodd">
        <g id="Admiral.Invest-4" transform="translate(-140.000000, -3599.000000)">
            <g id="Group-17" transform="translate(140.000000, 2969.000000)">
                <g id="Group-15" transform="translate(0.000000, 20.000000)">
                    <g id="Start-Copy" transform="translate(0.000000, 596.000000)">
                        <g id="icon-big-trading">
                            <g id="graph" transform="translate(18.000000, 14.000000)">
                                <g id="Rectangle-21">
                                    <use fill="#FFFFFF" fill-rule="evenodd" xlink:href="#path-1"></use>
                                    <rect stroke="#2585FF" stroke-width="2" x="1" y="1" width="66" height="48" rx="4"></rect>
                                </g>
                                <polyline id="Path-14" stroke="#2585FF" stroke-width="2" stroke-linecap="round" stroke-linejoin="round" points="1 34 20 20 40 37 67 13"></polyline>
                                <path d="M20,20 L20,49.0172363" id="Path-15" stroke="#2585FF" stroke-width="2"></path>
                                <path d="M20,1 L20,21.0172363" id="Path-15" stroke="#2585FF" stroke-width="2" stroke-dasharray="2"></path>
                                <path d="M40,1 L40,36" id="Path-15" stroke="#2585FF" stroke-width="2" stroke-dasharray="2"></path>
                                <path d="M40,36 L40,49.0172363" id="Path-15" stroke="#2585FF" stroke-width="2"></path>
                                <g id="Oval-7">
                                    <use fill="#FFFFFF" fill-rule="evenodd" xlink:href="#path-2"></use>
                                    <circle stroke="#2585FF" stroke-width="2" cx="20" cy="21" r="3"></circle>
                                </g>
                                <g id="Oval-7">
                                    <use fill="#FFFFFF" fill-rule="evenodd" xlink:href="#path-3"></use>
                                    <circle stroke="#2585FF" stroke-width="2" cx="40" cy="36" r="3"></circle>
                                </g>
                            </g>
                            <g id="arrows" transform="translate(0.000000, 46.000000)">
                                <g id="Rectangle-21">
                                    <use fill="#FFFFFF" fill-rule="evenodd" xlink:href="#path-4"></use>
                                    <rect stroke="#2585FF" stroke-width="2" x="1" y="1" width="46" height="38" rx="4"></rect>
                                </g>
                                <g id="icon-45-copy" transform="translate(12.000000, 8.000000)" stroke="#2572DE" stroke-linecap="round" stroke-linejoin="round" stroke-width="2">
                                    <polyline id="Stroke-1" points="24 17.6 17.8666667 24 11.7333333 17.6"></polyline>
                                    <polyline id="Stroke-3" points="0 6.4 6.13333333 0 12.2666667 6.4"></polyline>
                                    <path d="M6.13333333,0 L6.13333333,14.4" id="Stroke-5"></path>
                                    <path d="M17.8666667,9.6 L17.8666667,24" id="Stroke-7"></path>
                                </g>
                            </g>
                            <g id="Check" transform="translate(68.000000, 52.000000)">
                                <g id="Oval-4">
                                    <use fill="#2585FF" fill-rule="evenodd" xlink:href="#path-5"></use>
                                    <circle stroke="#2585FF" stroke-width="2" cx="16" cy="16" r="15"></circle>
                                </g>
                                <path d="M18.6386719,17.1103516 L19.6503906,17.1103516 L19.6503906,18.8876953 L18.6386719,18.8876953 L18.6386719,21 L16.3349609,21 L16.3349609,18.8876953 L12.4863281,18.8876953 L12.3496094,17.4794922 L16.3349609,11.0673828 L16.3349609,11.046875 L18.6386719,11.046875 L18.6386719,17.1103516 Z M14.5439453,17.1103516 L16.3349609,17.1103516 L16.3349609,14.0478516 L16.1914062,14.2802734 L14.5439453,17.1103516 Z" id="4" fill="#FFFFFF"></path>
                            </g>
                        </g>
                    </g>
                </g>
            </g>
        </g>
    </g>
</svg>